<svg id="Layer_1" data-name="Layer 1" xmlns="http://www.w3.org/2000/svg" viewBox="0 0 122.8 120.6"><defs><style>.cls-1{fill:#42005e;}</style></defs><path class="cls-1" d="M108.9,54a8.52,8.52,0,0,1,5.8-2.3,8.18,8.18,0,0,1,5.8,2.4l.1.1a8.11,8.11,0,0,1,2.2,5.6,7.9,7.9,0,0,1-2.4,5.6C102.7,83.1,84.8,100.5,67,118.1l-.2.2a8.3,8.3,0,0,1-5.9,2.3,8.18,8.18,0,0,1-5.8-2.4l-.3-.3C37.5,100.4,19.9,83,2.4,65.5A7.9,7.9,0,0,1,0,59.9a8.11,8.11,0,0,1,2.2-5.6l.2-.2a8.18,8.18,0,0,1,5.8-2.4A8.47,8.47,0,0,1,14.1,54l47.3,47.2L108.9,54Zm-2-51.7A8.52,8.52,0,0,1,112.7,0a8.18,8.18,0,0,1,5.8,2.4l.1.1a8.11,8.11,0,0,1,2.2,5.6,7.9,7.9,0,0,1-2.4,5.6C101.2,31,84.2,48.9,67.1,66.4l-.2.2A8.3,8.3,0,0,1,61,68.9a8.18,8.18,0,0,1-5.8-2.4C38.2,49,21.4,31.4,4.4,13.9l-.1-.1A8.71,8.71,0,0,1,2,8.2,8.11,8.11,0,0,1,4.2,2.6l.2-.2a8.21,8.21,0,0,1,11.5-.1L61.1,49.5,106.9,2.3Z"/></svg>