<?xml version="1.0" standalone="no"?>
<!DOCTYPE svg PUBLIC "-//W3C//DTD SVG 20010904//EN"
 "http://www.w3.org/TR/2001/REC-SVG-20010904/DTD/svg10.dtd">
<svg version="1.0" xmlns="http://www.w3.org/2000/svg"
 width="100.000000pt" height="100.000000pt" viewBox="0 0 100.000000 100.000000"
 preserveAspectRatio="xMidYMid meet">
<metadata>
Created by potrace 1.14, written by Peter Selinger 2001-2017
</metadata>
<g transform="translate(0.000000,100.000000) scale(0.100000,-0.100000)"
fill="#000000" stroke="none">
<path d="M381 974 c-208 -56 -361 -257 -361 -474 0 -220 154 -420 365 -475
296 -77 595 162 595 475 0 220 -154 420 -365 475 -73 19 -163 18 -234 -1z
m226 -18 c168 -45 294 -172 338 -341 78 -302 -169 -605 -474 -583 -81 7 -164
35 -227 78 l-47 33 62 23 c35 13 83 37 107 54 42 28 47 29 98 19 142 -26 338
54 375 153 14 38 -9 57 -44 34 -14 -9 -25 -22 -25 -29 0 -21 -51 -64 -105 -88
-36 -16 -71 -22 -122 -23 -39 0 -75 2 -78 6 -4 3 0 17 8 30 8 12 22 46 31 73
16 52 96 388 96 406 0 6 -14 9 -32 7 l-32 -3 -56 -227 c-30 -124 -59 -230 -64
-235 -4 -4 -16 3 -24 17 -29 44 -70 80 -91 80 -28 0 -98 -64 -123 -114 -12
-24 -22 -61 -22 -88 -1 -48 -1 -48 -19 -25 -31 38 -67 114 -82 174 -42 160 6
326 129 448 115 115 274 161 423 121z m-279 -612 c18 -25 30 -49 27 -54 -3 -5
-31 -23 -62 -39 -70 -38 -82 -31 -65 36 13 45 46 103 61 103 4 0 22 -21 39
-46z"/>
<path d="M803 818 c-6 -7 -23 -76 -38 -153 -15 -77 -31 -144 -35 -149 -8 -8
-13 14 -42 164 -11 54 -17 66 -35 68 -19 3 -23 -4 -33 -55 -7 -32 -28 -107
-47 -166 -32 -102 -36 -137 -14 -137 10 0 53 112 71 190 8 30 17 59 20 63 4 4
12 -23 19 -61 29 -160 55 -198 85 -123 26 67 81 350 69 362 -7 7 -13 6 -20 -3z"/>
</g>
</svg>
